# xmcd
#
# Track frame offsets:
#	150
#	15596
#	32552
#	49226
#	65694
#	84173
#	99915
#	113850
#	130268
#	148145
#
# Disc length: 2209 seconds
#
# Revision: 0
# Processed by: cddbd v1.5.2PL0 Copyright (c) Steve Scherf et al.
# Submitted via: EasyCDDAExtractor 16.0.1.1
#
DISCID=80089f0a
DTITLE=Blackhawk
DYEAR=1994
DGENRE=Country
TTITLE0=Goodbye Says It All
TTITLE1=Down In Flames
TTITLE2=Every Once In A While
TTITLE3=I Sure Can Smell The Rain
TTITLE4=That's Just About Right
TTITLE5=One More Heartache
TTITLE6=Love Like This
TTITLE7=Between Ragged And Wrong
TTITLE8=Stone By Stone
TTITLE9=Let 'em Whirl
EXTD=
EXTT0=
EXTT1=
EXTT2=
EXTT3=
EXTT4=
EXTT5=
EXTT6=
EXTT7=
EXTT8=
EXTT9=
PLAYORDER=
